<svg width="22" height="21" viewBox="0 0 22 21" fill="none" xmlns="http://www.w3.org/2000/svg">
<path fill-rule="evenodd" clip-rule="evenodd" d="M5.29318 2.96556C2.62636 4.90311 1.29295 5.87189 0.769249 7.30291C0.727238 7.41771 0.68945 7.534 0.655963 7.65157C0.238517 9.11711 0.747834 10.6846 1.76647 13.8197C2.7851 16.9547 3.29442 18.5222 4.49356 19.4625C4.58976 19.5379 4.68869 19.6098 4.79015 19.678C6.05497 20.5279 7.70315 20.5279 10.9995 20.5279C14.2959 20.5279 15.9441 20.5279 17.2089 19.678C17.3103 19.6098 17.4093 19.5379 17.5055 19.4625C18.7046 18.5222 19.2139 16.9547 20.2326 13.8197C21.2512 10.6846 21.7605 9.11711 21.3431 7.65157C21.3096 7.534 21.2718 7.41771 21.2298 7.30291C20.7061 5.87189 19.3727 4.90312 16.7059 2.96557C14.0391 1.02801 12.7056 0.0592252 11.1828 0.00336104C11.0607 -0.00112035 10.9384 -0.00112035 10.8162 0.00336104C9.2934 0.0592251 7.95999 1.02801 5.29318 2.96556ZM8.99951 15.0697C8.5853 15.0697 8.24951 15.4054 8.24951 15.8197C8.24951 16.2339 8.5853 16.5697 8.99951 16.5697H12.9995C13.4137 16.5697 13.7495 16.2339 13.7495 15.8197C13.7495 15.4054 13.4137 15.0697 12.9995 15.0697H8.99951Z" fill="#00e6a3"/>
</svg>
