<svg xmlns="http://www.w3.org/2000/svg" xmlns:xlink="http://www.w3.org/1999/xlink" width="1080" zoomAndPan="magnify" viewBox="0 0 810 809.999993" height="1080" preserveAspectRatio="xMidYMid meet" version="1.0"><path fill="#00b37f" d="M 628.316406 513.457031 C 621.042969 520.75 609.28125 520.75 602.003906 513.457031 L 575.6875 487.140625 C 568.394531 479.867188 568.394531 468.085938 575.6875 460.828125 L 628.316406 408.199219 C 635.59375 400.921875 647.355469 400.921875 654.632812 408.199219 L 680.945312 434.511719 C 688.242188 441.789062 688.242188 453.570312 680.945312 460.828125 Z M 349.167969 234.304688 C 341.890625 241.601562 330.128906 241.601562 322.851562 234.304688 L 296.539062 207.992188 C 289.242188 200.714844 289.242188 188.953125 296.539062 181.675781 L 349.167969 129.046875 C 356.445312 121.769531 368.207031 121.769531 375.480469 129.046875 L 401.796875 155.363281 C 409.089844 162.640625 409.089844 174.402344 401.796875 181.675781 Z M 349.167969 234.304688 " fill-opacity="1" fill-rule="nonzero"/><path fill="#00e6a3" d="M 107.238281 479.4375 C 144.457031 479.4375 311.945312 498.046875 311.945312 498.046875 C 311.945312 498.046875 330.558594 665.539062 330.558594 702.757812 C 330.558594 739.976562 293.335938 739.976562 274.726562 721.367188 C 256.117188 702.757812 200.289062 609.707031 200.289062 609.707031 C 200.289062 609.707031 107.238281 553.878906 88.628906 535.265625 C 70.015625 516.65625 70.015625 479.4375 107.238281 479.4375 Z M 144.457031 182.402344 C 200.289062 181.675781 609.707031 200.289062 609.707031 200.289062 C 609.707031 200.289062 626.902344 609.707031 627.609375 665.539062 C 628.316406 721.367188 576.191406 740.015625 555.738281 665.554688 C 535.285156 591.097656 460.828125 349.167969 460.828125 349.167969 C 460.828125 349.167969 201.125 266.96875 144.363281 254.21875 C 70.015625 237.507812 88.609375 183.109375 144.457031 182.402344 Z M 144.457031 182.402344 " fill-opacity="1" fill-rule="nonzero"/><path fill="#ccd6dd" d="M 572.488281 125.847656 C 609.707031 88.628906 702.757812 70.015625 721.367188 88.628906 C 739.976562 107.238281 721.367188 200.289062 684.148438 237.507812 C 646.925781 274.726562 330.558594 572.488281 330.558594 572.488281 C 330.558594 572.488281 209.59375 656.234375 181.675781 628.316406 C 153.761719 600.402344 237.507812 479.4375 237.507812 479.4375 C 237.507812 479.4375 535.265625 163.066406 572.488281 125.847656 Z M 572.488281 125.847656 " fill-opacity="1" fill-rule="nonzero"/><path fill="#00b37f" d="M 330.558594 479.4375 C 330.558594 479.4375 339.863281 488.742188 256.117188 572.488281 C 172.371094 656.234375 163.066406 646.925781 163.066406 646.925781 C 163.066406 646.925781 153.761719 637.621094 237.507812 553.878906 C 321.253906 470.132812 330.558594 479.4375 330.558594 479.4375 Z M 609.707031 144.457031 C 640.542969 144.457031 665.539062 169.449219 665.539062 200.289062 L 680.519531 200.289062 C 682.640625 194.425781 684.148438 188.285156 684.148438 181.675781 C 684.148438 150.839844 659.15625 125.847656 628.316406 125.847656 C 621.710938 125.847656 615.570312 127.355469 609.707031 129.476562 Z M 609.707031 144.457031 " fill-opacity="1" fill-rule="nonzero"/></svg>