<svg xmlns="http://www.w3.org/2000/svg" xmlns:xlink="http://www.w3.org/1999/xlink" width="1080" zoomAndPan="magnify" viewBox="0 0 810 809.999993" height="1080" preserveAspectRatio="xMidYMid meet" version="1.0"><defs><clipPath id="b726fcb4b7"><path d="M 59.148438 101 L 750.648438 101 L 750.648438 708 L 59.148438 708 Z M 59.148438 101 " clip-rule="nonzero"/></clipPath></defs><rect x="-81" width="972" fill="#ffffff" y="-80.999999" height="971.999992" fill-opacity="1"/><rect x="-81" width="972" fill="#ffffff" y="-80.999999" height="971.999992" fill-opacity="1"/><g clip-path="url(#b726fcb4b7)"><path fill="#00e6a3" d="M 417.1875 522.222656 L 417.1875 558.976562 L 448.355469 570.40625 L 448.355469 533.652344 Z M 417.1875 450.484375 L 417.1875 487.238281 L 448.355469 498.667969 L 448.355469 461.914062 Z M 572.863281 407.796875 L 504.390625 452.304688 L 504.390625 636.023438 C 527.667969 638.644531 550.535156 642.191406 572.863281 646.640625 Z M 417.1875 378.796875 L 417.1875 415.496094 L 448.355469 426.933594 L 448.355469 390.226562 Z M 222.804688 368.488281 L 154.296875 412.996094 L 154.296875 667.765625 C 176.199219 660.738281 199.117188 654.65625 222.804688 649.578125 Z M 479.203125 329.84375 L 479.203125 366.546875 L 510.382812 377.984375 L 510.382812 341.28125 Z M 417.1875 307.0625 L 417.1875 343.816406 L 448.355469 355.257812 L 448.355469 318.503906 Z M 479.203125 258.105469 L 479.203125 294.867188 L 510.382812 306.253906 L 510.382812 269.550781 Z M 417.1875 235.339844 L 417.1875 272.085938 L 448.355469 283.515625 L 448.355469 246.761719 Z M 479.203125 186.382812 L 479.203125 223.136719 L 510.382812 234.566406 L 510.382812 197.8125 Z M 417.1875 163.601562 L 417.1875 200.355469 L 448.355469 211.785156 L 448.355469 175.03125 Z M 375.804688 128.398438 L 307.296875 172.90625 L 307.296875 635.785156 C 329.886719 633.382812 352.765625 631.789062 375.804688 631.117188 Z M 390.136719 101.890625 L 536.960938 155.742188 L 536.960938 382.792969 L 468.960938 427.023438 L 468.960938 632.929688 C 475.9375 633.339844 482.976562 633.878906 489.960938 634.480469 L 489.960938 444.488281 L 587.246094 381.296875 L 670.09375 435.160156 L 670.09375 672.445312 C 699.171875 682.523438 726.222656 694.179688 750.710938 707.292969 L 59.289062 707.292969 C 83.785156 694.277344 110.835938 682.664062 139.871094 672.679688 L 139.871094 405.207031 L 237.152344 341.996094 L 292.90625 378.203125 L 292.90625 165.144531 Z M 390.136719 101.890625 " fill-opacity="1" fill-rule="evenodd"/></g></svg>