<svg xmlns="http://www.w3.org/2000/svg" xmlns:xlink="http://www.w3.org/1999/xlink" width="1080" zoomAndPan="magnify" viewBox="0 0 810 809.999993" height="1080" preserveAspectRatio="xMidYMid meet" version="1.0"><defs><clipPath id="0987fd93b8"><path d="M 101.421875 130.695312 L 708.921875 130.695312 L 708.921875 729.195312 L 101.421875 729.195312 Z M 101.421875 130.695312 " clip-rule="nonzero"/></clipPath><clipPath id="537a818205"><path d="M 101.421875 130.695312 L 407 130.695312 L 407 729.195312 L 101.421875 729.195312 Z M 101.421875 130.695312 " clip-rule="nonzero"/></clipPath><clipPath id="1ea653c313"><path d="M 101.421875 232 L 407 232 L 407 390 L 101.421875 390 Z M 101.421875 232 " clip-rule="nonzero"/></clipPath><clipPath id="b2c4e6ecef"><path d="M 406 232 L 708.921875 232 L 708.921875 390 L 406 390 Z M 406 232 " clip-rule="nonzero"/></clipPath></defs><rect x="-81" width="972" fill="#ffffff" y="-80.999999" height="971.999992" fill-opacity="1"/><rect x="-81" width="972" fill="#ffffff" y="-80.999999" height="971.999992" fill-opacity="1"/><g clip-path="url(#0987fd93b8)"><path fill="#00e6a3" d="M 708.367188 218.417969 L 708.367188 648.5 L 406.105469 728.730469 L 404.996094 729.019531 L 101.621094 646.875 L 101.621094 218.152344 L 406.105469 130.695312 Z M 708.367188 218.417969 " fill-opacity="1" fill-rule="nonzero"/></g><g clip-path="url(#537a818205)"><path fill="#00e6a3" d="M 406.105469 130.695312 L 406.105469 728.730469 L 404.996094 729.019531 L 101.621094 646.875 L 101.621094 218.152344 Z M 406.105469 130.695312 " fill-opacity="1" fill-rule="nonzero"/></g><g clip-path="url(#1ea653c313)"><path fill="#ffffff" d="M 406.105469 232.019531 L 406.105469 282.25 L 101.621094 327.632812 L 101.621094 291.496094 Z M 101.621094 389.574219 L 128.292969 387.796875 L 128.292969 357.660156 L 101.621094 360.394531 Z M 181.632812 384.242188 L 281.644531 377.574219 L 281.644531 341.992188 L 181.632812 352.214844 Z M 361.65625 333.8125 L 361.65625 372.238281 L 406.105469 369.285156 L 406.105469 329.277344 Z M 154.851562 355.882812 L 141.960938 371.839844 L 155.183594 385.0625 L 168.542969 369.550781 Z M 319.316406 338.101562 L 302.449219 358.972656 L 319.761719 376.285156 L 337.230469 355.992188 Z M 319.316406 338.101562 " fill-opacity="1" fill-rule="nonzero"/></g><g clip-path="url(#b2c4e6ecef)"><path fill="#ffffff" d="M 530.566406 342.234375 L 630.582031 352.660156 L 630.582031 384.152344 L 530.566406 377.53125 Z M 683.921875 358.214844 L 683.921875 387.664062 L 708.367188 389.285156 L 708.367188 360.773438 Z M 644.003906 369.550781 L 657.363281 385.0625 L 670.585938 371.839844 L 657.695312 355.882812 Z M 475.339844 355.992188 L 492.808594 376.285156 L 510.121094 358.972656 L 493.25 338.101562 Z M 406.105469 232.019531 L 406.105469 282.25 L 708.367188 327.054688 L 708.367188 290.671875 Z M 406.105469 329.277344 L 406.105469 369.285156 L 450.558594 372.21875 L 450.558594 333.902344 Z M 406.105469 329.277344 " fill-opacity="1" fill-rule="nonzero"/></g></svg>