<svg xmlns="http://www.w3.org/2000/svg" xmlns:xlink="http://www.w3.org/1999/xlink" width="1080" zoomAndPan="magnify" viewBox="0 0 810 809.999993" height="1080" preserveAspectRatio="xMidYMid meet" version="1.0"><defs><clipPath id="a23508a90d"><path d="M 221 188 L 588.964844 188 L 588.964844 696.390625 L 221 696.390625 Z M 221 188 " clip-rule="nonzero"/></clipPath><clipPath id="6c52e3251f"><path d="M 221 113.640625 L 555 113.640625 L 555 200 L 221 200 Z M 221 113.640625 " clip-rule="nonzero"/></clipPath></defs><rect x="-81" width="972" fill="#ffffff" y="-80.999999" height="971.999992" fill-opacity="1"/><rect x="-81" width="972" fill="#ffffff" y="-80.999999" height="971.999992" fill-opacity="1"/><path fill="#f9f9f9" d="M 226.632812 194.242188 L 583.640625 194.242188 L 583.640625 690.769531 L 226.632812 690.769531 Z M 226.632812 194.242188 " fill-opacity="1" fill-rule="nonzero"/><path fill="#e5e5e5" d="M 540.046875 194.242188 L 540.046875 521.113281 C 540.046875 590.730469 483.605469 647.171875 413.984375 647.171875 L 226.632812 647.171875 L 226.632812 690.769531 L 583.640625 690.769531 L 583.640625 194.242188 Z M 540.046875 194.242188 " fill-opacity="1" fill-rule="nonzero"/><path fill="#00e6a3" d="M 450.625 633.453125 C 449.972656 633.453125 449.308594 633.335938 448.660156 633.089844 C 445.796875 632.007812 444.351562 628.804688 445.4375 625.9375 L 462.847656 579.921875 C 463.933594 577.054688 467.136719 575.613281 470 576.695312 C 472.867188 577.78125 474.3125 580.984375 473.226562 583.847656 L 455.8125 629.867188 C 454.972656 632.085938 452.863281 633.453125 450.625 633.453125 Z M 450.625 633.453125 " fill-opacity="1" fill-rule="nonzero"/><path fill="#00e6a3" d="M 485.449219 633.453125 C 483.210938 633.453125 481.101562 632.085938 480.261719 629.867188 L 462.847656 583.847656 C 461.765625 580.984375 463.207031 577.78125 466.074219 576.695312 C 468.9375 575.613281 472.144531 577.054688 473.226562 579.921875 L 490.636719 625.9375 C 491.722656 628.804688 490.277344 632.007812 487.414062 633.089844 C 486.765625 633.335938 486.101562 633.453125 485.449219 633.453125 Z M 485.449219 633.453125 " fill-opacity="1" fill-rule="nonzero"/><path fill="#00e6a3" d="M 478.769531 615.800781 L 457.304688 615.800781 C 454.238281 615.800781 451.753906 613.316406 451.753906 610.253906 C 451.753906 607.1875 454.238281 604.707031 457.304688 604.707031 L 478.769531 604.707031 C 481.835938 604.707031 484.320312 607.1875 484.320312 610.253906 C 484.320312 613.316406 481.835938 615.800781 478.769531 615.800781 Z M 478.769531 615.800781 " fill-opacity="1" fill-rule="nonzero"/><path fill="#00e6a3" d="M 342.757812 631.730469 C 340.558594 631.730469 338.480469 630.417969 337.609375 628.257812 L 319.683594 583.820312 C 318.535156 580.980469 319.910156 577.746094 322.75 576.601562 C 325.59375 575.453125 328.824219 576.828125 329.972656 579.671875 L 347.898438 624.105469 C 349.046875 626.949219 347.671875 630.179688 344.832031 631.328125 C 344.152344 631.601562 343.449219 631.730469 342.757812 631.730469 Z M 342.757812 631.730469 " fill-opacity="1" fill-rule="nonzero"/><path fill="#00e6a3" d="M 342.753906 631.730469 C 342.0625 631.730469 341.359375 631.601562 340.679688 631.328125 C 337.835938 630.179688 336.460938 626.949219 337.609375 624.105469 L 355.535156 579.671875 C 356.683594 576.828125 359.914062 575.453125 362.757812 576.601562 C 365.601562 577.746094 366.972656 580.980469 365.828125 583.820312 L 347.898438 628.257812 C 347.027344 630.417969 344.949219 631.730469 342.753906 631.730469 Z M 342.753906 631.730469 " fill-opacity="1" fill-rule="nonzero"/><path fill="#00e6a3" d="M 381.960938 631.730469 C 378.894531 631.730469 376.414062 629.246094 376.414062 626.179688 L 376.414062 581.746094 C 376.414062 578.683594 378.894531 576.199219 381.960938 576.199219 C 385.023438 576.199219 387.507812 578.683594 387.507812 581.746094 L 387.507812 626.179688 C 387.507812 629.246094 385.023438 631.730469 381.960938 631.730469 Z M 381.960938 631.730469 " fill-opacity="1" fill-rule="nonzero"/><path fill="#00e6a3" d="M 417.425781 633.351562 C 408.15625 633.351562 399.976562 629.574219 396.085938 623.488281 C 394.433594 620.90625 395.1875 617.476562 397.769531 615.824219 C 400.351562 614.175781 403.78125 614.925781 405.433594 617.507812 C 406.894531 619.792969 411.273438 622.253906 417.429688 622.253906 C 429.695312 622.253906 429.9375 618.320312 429.96875 615.882812 C 429.5625 614.679688 425.339844 611.980469 419.773438 610.582031 C 404.484375 606.738281 396.730469 600.515625 396.730469 592.082031 C 396.730469 582.265625 407.113281 574.574219 420.371094 574.574219 C 426.277344 574.574219 431.90625 576.144531 436.222656 578.996094 C 438.777344 580.6875 439.480469 584.128906 437.792969 586.683594 C 436.101562 589.242188 432.660156 589.941406 430.101562 588.253906 C 427.621094 586.613281 424.074219 585.671875 420.371094 585.671875 C 412.714844 585.671875 407.828125 589.46875 407.828125 592.082031 C 407.828125 593.484375 410.890625 596.90625 422.476562 599.820312 C 424.195312 600.25 428.636719 601.515625 432.746094 603.910156 C 439.625 607.917969 441.070312 612.613281 441.070312 615.84375 C 441.070312 615.867188 441.070312 615.890625 441.070312 615.917969 C 440.964844 623.871094 436.777344 633.351562 417.429688 633.351562 Z M 417.425781 633.351562 " fill-opacity="1" fill-rule="nonzero"/><path fill="#00b37f" d="M 497.351562 356.234375 C 497.351562 357.742188 497.316406 359.25 497.242188 360.757812 C 497.167969 362.265625 497.054688 363.769531 496.90625 365.273438 C 496.761719 366.773438 496.574219 368.273438 496.355469 369.765625 C 496.132812 371.257812 495.875 372.742188 495.582031 374.222656 C 495.285156 375.703125 494.957031 377.175781 494.589844 378.640625 C 494.222656 380.105469 493.820312 381.558594 493.382812 383.003906 C 492.941406 384.445312 492.46875 385.878906 491.960938 387.300781 C 491.453125 388.71875 490.910156 390.128906 490.332031 391.523438 C 489.753906 392.917969 489.144531 394.296875 488.5 395.660156 C 487.851562 397.023438 487.175781 398.371094 486.464844 399.703125 C 485.753906 401.035156 485.007812 402.347656 484.234375 403.640625 C 483.457031 404.9375 482.648438 406.210938 481.8125 407.464844 C 480.972656 408.71875 480.105469 409.953125 479.203125 411.164062 C 478.304688 412.378906 477.378906 413.566406 476.421875 414.734375 C 475.464844 415.898438 474.476562 417.042969 473.464844 418.160156 C 472.449219 419.277344 471.410156 420.371094 470.34375 421.4375 C 469.277344 422.507812 468.183594 423.546875 467.066406 424.558594 C 465.945312 425.574219 464.804688 426.558594 463.636719 427.515625 C 462.472656 428.472656 461.28125 429.402344 460.070312 430.300781 C 458.859375 431.199219 457.625 432.070312 456.371094 432.90625 C 455.113281 433.746094 453.839844 434.550781 452.546875 435.328125 C 451.25 436.105469 449.9375 436.847656 448.609375 437.558594 C 447.277344 438.269531 445.929688 438.949219 444.566406 439.59375 C 443.199219 440.238281 441.820312 440.851562 440.425781 441.429688 C 439.03125 442.007812 437.625 442.550781 436.203125 443.058594 C 434.78125 443.566406 433.351562 444.039062 431.90625 444.476562 C 430.460938 444.914062 429.007812 445.316406 427.542969 445.683594 C 426.082031 446.050781 424.609375 446.382812 423.128906 446.675781 C 421.648438 446.96875 420.160156 447.226562 418.667969 447.449219 C 417.175781 447.671875 415.679688 447.855469 414.175781 448.003906 C 412.675781 448.152344 411.171875 448.261719 409.664062 448.335938 C 408.15625 448.410156 406.648438 448.449219 405.136719 448.449219 C 403.628906 448.449219 402.121094 448.410156 400.613281 448.335938 C 399.105469 448.261719 397.601562 448.152344 396.097656 448.003906 C 394.597656 447.855469 393.101562 447.671875 391.605469 447.449219 C 390.113281 447.226562 388.628906 446.96875 387.148438 446.675781 C 385.667969 446.382812 384.195312 446.050781 382.730469 445.683594 C 381.269531 445.316406 379.8125 444.914062 378.371094 444.476562 C 376.925781 444.039062 375.492188 443.566406 374.070312 443.058594 C 372.652344 442.550781 371.242188 442.007812 369.847656 441.429688 C 368.453125 440.851562 367.074219 440.238281 365.710938 439.59375 C 364.347656 438.949219 363 438.269531 361.667969 437.558594 C 360.335938 436.847656 359.023438 436.105469 357.730469 435.328125 C 356.4375 434.550781 355.160156 433.746094 353.90625 432.90625 C 352.652344 432.070312 351.417969 431.199219 350.207031 430.300781 C 348.992188 429.402344 347.804688 428.472656 346.636719 427.515625 C 345.472656 426.558594 344.328125 425.574219 343.210938 424.558594 C 342.09375 423.546875 341 422.507812 339.933594 421.4375 C 338.867188 420.371094 337.824219 419.277344 336.8125 418.160156 C 335.796875 417.042969 334.8125 415.898438 333.855469 414.734375 C 332.898438 413.566406 331.96875 412.378906 331.070312 411.164062 C 330.171875 409.953125 329.304688 408.71875 328.464844 407.464844 C 327.625 406.210938 326.820312 404.9375 326.042969 403.640625 C 325.265625 402.347656 324.523438 401.035156 323.8125 399.703125 C 323.101562 398.371094 322.421875 397.023438 321.777344 395.660156 C 321.132812 394.296875 320.519531 392.917969 319.941406 391.523438 C 319.367188 390.128906 318.824219 388.71875 318.3125 387.300781 C 317.804688 385.878906 317.332031 384.445312 316.894531 383.003906 C 316.457031 381.558594 316.054688 380.105469 315.6875 378.640625 C 315.320312 377.175781 314.988281 375.703125 314.695312 374.222656 C 314.402344 372.742188 314.144531 371.257812 313.921875 369.765625 C 313.699219 368.273438 313.515625 366.773438 313.367188 365.273438 C 313.21875 363.769531 313.109375 362.265625 313.035156 360.757812 C 312.960938 359.25 312.921875 357.742188 312.921875 356.234375 C 312.921875 354.722656 312.960938 353.214844 313.035156 351.710938 C 313.109375 350.203125 313.21875 348.695312 313.367188 347.195312 C 313.515625 345.691406 313.699219 344.195312 313.921875 342.703125 C 314.144531 341.210938 314.402344 339.722656 314.695312 338.242188 C 314.988281 336.761719 315.320312 335.292969 315.6875 333.828125 C 316.054688 332.363281 316.457031 330.910156 316.894531 329.464844 C 317.332031 328.019531 317.804688 326.589844 318.3125 325.167969 C 318.824219 323.746094 319.367188 322.339844 319.941406 320.945312 C 320.519531 319.550781 321.132812 318.171875 321.777344 316.808594 C 322.421875 315.441406 323.101562 314.09375 323.8125 312.765625 C 324.523438 311.433594 325.265625 310.121094 326.042969 308.824219 C 326.820312 307.53125 327.625 306.257812 328.464844 305.003906 C 329.304688 303.746094 330.171875 302.515625 331.070312 301.300781 C 331.96875 300.089844 332.898438 298.898438 333.855469 297.734375 C 334.8125 296.566406 335.796875 295.425781 336.8125 294.304688 C 337.824219 293.1875 338.867188 292.09375 339.933594 291.027344 C 341 289.960938 342.09375 288.921875 343.210938 287.90625 C 344.328125 286.894531 345.472656 285.910156 346.636719 284.953125 C 347.804688 283.992188 348.992188 283.066406 350.207031 282.167969 C 351.417969 281.269531 352.652344 280.398438 353.90625 279.558594 C 355.160156 278.722656 356.4375 277.914062 357.730469 277.140625 C 359.023438 276.363281 360.335938 275.621094 361.667969 274.90625 C 363 274.195312 364.347656 273.519531 365.710938 272.875 C 367.074219 272.226562 368.453125 271.617188 369.847656 271.039062 C 371.242188 270.460938 372.652344 269.917969 374.070312 269.410156 C 375.492188 268.902344 376.925781 268.429688 378.371094 267.992188 C 379.8125 267.550781 381.269531 267.148438 382.730469 266.78125 C 384.195312 266.417969 385.667969 266.085938 387.148438 265.792969 C 388.628906 265.496094 390.113281 265.238281 391.605469 265.019531 C 393.101562 264.796875 394.597656 264.613281 396.097656 264.464844 C 397.601562 264.316406 399.105469 264.203125 400.613281 264.128906 C 402.121094 264.054688 403.628906 264.019531 405.136719 264.019531 C 406.648438 264.019531 408.15625 264.054688 409.664062 264.128906 C 411.171875 264.203125 412.675781 264.316406 414.175781 264.464844 C 415.679688 264.613281 417.175781 264.796875 418.667969 265.019531 C 420.160156 265.238281 421.648438 265.496094 423.128906 265.792969 C 424.609375 266.085938 426.082031 266.417969 427.542969 266.78125 C 429.007812 267.148438 430.460938 267.550781 431.90625 267.992188 C 433.351562 268.429688 434.78125 268.902344 436.203125 269.410156 C 437.625 269.917969 439.03125 270.460938 440.425781 271.039062 C 441.820312 271.617188 443.199219 272.226562 444.566406 272.875 C 445.929688 273.519531 447.277344 274.195312 448.609375 274.90625 C 449.9375 275.621094 451.25 276.363281 452.546875 277.140625 C 453.839844 277.914062 455.113281 278.722656 456.371094 279.558594 C 457.625 280.398438 458.859375 281.265625 460.070312 282.167969 C 461.28125 283.066406 462.472656 283.992188 463.636719 284.953125 C 464.804688 285.910156 465.945312 286.894531 467.066406 287.90625 C 468.183594 288.921875 469.277344 289.960938 470.34375 291.027344 C 471.410156 292.09375 472.449219 293.1875 473.464844 294.304688 C 474.476562 295.425781 475.464844 296.566406 476.421875 297.734375 C 477.378906 298.898438 478.304688 300.089844 479.203125 301.300781 C 480.105469 302.515625 480.972656 303.746094 481.8125 305.003906 C 482.648438 306.257812 483.457031 307.53125 484.234375 308.824219 C 485.007812 310.121094 485.753906 311.433594 486.464844 312.765625 C 487.175781 314.09375 487.851562 315.441406 488.5 316.808594 C 489.144531 318.171875 489.753906 319.550781 490.332031 320.945312 C 490.910156 322.339844 491.453125 323.746094 491.960938 325.167969 C 492.46875 326.589844 492.941406 328.019531 493.382812 329.464844 C 493.820312 330.910156 494.222656 332.363281 494.589844 333.828125 C 494.957031 335.292969 495.285156 336.761719 495.582031 338.242188 C 495.875 339.722656 496.132812 341.210938 496.355469 342.703125 C 496.574219 344.195312 496.761719 345.691406 496.90625 347.195312 C 497.054688 348.695312 497.167969 350.203125 497.242188 351.710938 C 497.316406 353.214844 497.351562 354.722656 497.351562 356.234375 Z M 497.351562 356.234375 " fill-opacity="1" fill-rule="nonzero"/><path fill="#00e6a3" d="M 405.136719 453.996094 C 351.230469 453.996094 307.375 410.140625 307.375 356.234375 C 307.375 302.328125 351.230469 258.472656 405.136719 258.472656 C 459.046875 258.472656 502.902344 302.328125 502.902344 356.234375 C 502.902344 410.140625 459.046875 453.996094 405.136719 453.996094 Z M 405.136719 269.566406 C 357.351562 269.566406 318.472656 308.445312 318.472656 356.234375 C 318.472656 404.019531 357.351562 442.898438 405.136719 442.898438 C 452.925781 442.898438 491.804688 404.019531 491.804688 356.234375 C 491.804688 308.445312 452.925781 269.566406 405.136719 269.566406 Z M 405.136719 269.566406 " fill-opacity="1" fill-rule="nonzero"/><path fill="#00e6a3" d="M 405.136719 315.675781 C 381.304688 315.675781 358.339844 306.996094 340.480469 291.234375 C 339.285156 290.179688 338.601562 288.664062 338.601562 287.074219 C 338.601562 285.480469 339.285156 283.96875 340.480469 282.914062 C 358.339844 267.152344 381.304688 258.472656 405.136719 258.472656 C 428.972656 258.472656 451.933594 267.152344 469.796875 282.914062 C 470.988281 283.96875 471.671875 285.480469 471.671875 287.074219 C 471.671875 288.664062 470.988281 290.179688 469.796875 291.234375 C 451.933594 306.996094 428.972656 315.675781 405.136719 315.675781 Z M 352.914062 287.074219 C 367.902344 298.402344 386.210938 304.578125 405.136719 304.578125 C 424.066406 304.578125 442.371094 298.402344 457.363281 287.074219 C 442.371094 275.742188 424.066406 269.570312 405.136719 269.570312 C 386.210938 269.570312 367.902344 275.742188 352.914062 287.074219 Z M 352.914062 287.074219 " fill-opacity="1" fill-rule="nonzero"/><path fill="#00e6a3" d="M 405.136719 453.996094 C 381.304688 453.996094 358.339844 445.316406 340.480469 429.554688 C 339.285156 428.5 338.601562 426.984375 338.601562 425.394531 C 338.601562 423.804688 339.285156 422.289062 340.480469 421.234375 C 358.339844 405.472656 381.304688 396.792969 405.136719 396.792969 C 428.972656 396.792969 451.933594 405.472656 469.796875 421.234375 C 470.988281 422.289062 471.671875 423.804688 471.671875 425.394531 C 471.671875 426.984375 470.988281 428.5 469.796875 429.554688 C 451.933594 445.316406 428.972656 453.996094 405.136719 453.996094 Z M 352.914062 425.394531 C 367.902344 436.726562 386.210938 442.898438 405.136719 442.898438 C 424.066406 442.898438 442.371094 436.726562 457.363281 425.394531 C 442.371094 414.0625 424.066406 407.890625 405.136719 407.890625 C 386.210938 407.890625 367.902344 414.0625 352.914062 425.394531 Z M 352.914062 425.394531 " fill-opacity="1" fill-rule="nonzero"/><path fill="#00e6a3" d="M 405.136719 453.996094 C 376.171875 453.996094 353.484375 411.054688 353.484375 356.234375 C 353.484375 301.414062 376.171875 258.472656 405.136719 258.472656 C 434.101562 258.472656 456.792969 301.414062 456.792969 356.234375 C 456.792969 411.054688 434.101562 453.996094 405.136719 453.996094 Z M 405.136719 269.566406 C 395.179688 269.566406 385.105469 278.292969 377.496094 293.507812 C 369.167969 310.171875 364.578125 332.449219 364.578125 356.234375 C 364.578125 380.019531 369.167969 402.296875 377.496094 418.957031 C 385.105469 434.171875 395.179688 442.898438 405.136719 442.898438 C 415.097656 442.898438 425.171875 434.171875 432.777344 418.957031 C 441.109375 402.296875 445.695312 380.019531 445.695312 356.234375 C 445.695312 332.445312 441.109375 310.171875 432.777344 293.507812 C 425.171875 278.292969 415.097656 269.566406 405.136719 269.566406 Z M 405.136719 269.566406 " fill-opacity="1" fill-rule="nonzero"/><path fill="#00e6a3" d="M 497.351562 361.78125 L 312.921875 361.78125 C 309.859375 361.78125 307.375 359.296875 307.375 356.234375 C 307.375 353.167969 309.859375 350.683594 312.921875 350.683594 L 497.351562 350.683594 C 500.417969 350.683594 502.902344 353.167969 502.902344 356.234375 C 502.902344 359.296875 500.417969 361.78125 497.351562 361.78125 Z M 497.351562 361.78125 " fill-opacity="1" fill-rule="nonzero"/><path fill="#00e6a3" d="M 405.136719 453.996094 C 402.074219 453.996094 399.589844 451.511719 399.589844 448.449219 L 399.589844 264.019531 C 399.589844 260.957031 402.074219 258.472656 405.136719 258.472656 C 408.203125 258.472656 410.6875 260.957031 410.6875 264.019531 L 410.6875 448.449219 C 410.6875 451.511719 408.203125 453.996094 405.136719 453.996094 Z M 405.136719 453.996094 " fill-opacity="1" fill-rule="nonzero"/><g clip-path="url(#a23508a90d)"><path fill="#00e6a3" d="M 583.640625 696.316406 L 226.632812 696.316406 C 223.570312 696.316406 221.085938 693.832031 221.085938 690.769531 L 221.085938 194.242188 C 221.085938 191.175781 223.570312 188.691406 226.632812 188.691406 L 583.640625 188.691406 C 586.707031 188.691406 589.191406 191.175781 589.191406 194.242188 L 589.191406 690.769531 C 589.191406 693.832031 586.707031 696.316406 583.640625 696.316406 Z M 232.183594 685.21875 L 578.09375 685.21875 L 578.09375 199.789062 L 232.183594 199.789062 Z M 232.183594 685.21875 " fill-opacity="1" fill-rule="nonzero"/></g><path fill="#e5e5e5" d="M 549.105469 119.417969 L 226.632812 194.242188 L 549.105469 194.242188 Z M 549.105469 119.417969 " fill-opacity="1" fill-rule="nonzero"/><g clip-path="url(#6c52e3251f)"><path fill="#00e6a3" d="M 549.105469 199.789062 L 226.632812 199.789062 C 223.816406 199.789062 221.445312 197.675781 221.121094 194.871094 C 220.800781 192.070312 222.632812 189.472656 225.378906 188.835938 L 547.851562 114.015625 C 549.5 113.632812 551.234375 114.023438 552.558594 115.074219 C 553.882812 116.128906 554.65625 117.726562 554.65625 119.417969 L 554.65625 194.242188 C 554.65625 197.304688 552.171875 199.789062 549.105469 199.789062 Z M 275.09375 188.691406 L 543.558594 188.691406 L 543.558594 126.402344 Z M 275.09375 188.691406 " fill-opacity="1" fill-rule="nonzero"/></g><path fill="#00e6a3" d="M 497.351562 500.007812 L 312.921875 500.007812 C 309.859375 500.007812 307.375 497.523438 307.375 494.457031 C 307.375 491.394531 309.859375 488.910156 312.921875 488.910156 L 497.351562 488.910156 C 500.417969 488.910156 502.902344 491.394531 502.902344 494.457031 C 502.902344 497.523438 500.417969 500.007812 497.351562 500.007812 Z M 497.351562 500.007812 " fill-opacity="1" fill-rule="nonzero"/><path fill="#00e6a3" d="M 497.351562 538.824219 L 312.921875 538.824219 C 309.859375 538.824219 307.375 536.339844 307.375 533.277344 C 307.375 530.210938 309.859375 527.726562 312.921875 527.726562 L 497.351562 527.726562 C 500.417969 527.726562 502.902344 530.210938 502.902344 533.277344 C 502.902344 536.339844 500.417969 538.824219 497.351562 538.824219 Z M 497.351562 538.824219 " fill-opacity="1" fill-rule="nonzero"/></svg>